<?xml version="1.0" standalone="no"?>
<!DOCTYPE svg PUBLIC "-//W3C//DTD SVG 20010904//EN"
 "http://www.w3.org/TR/2001/REC-SVG-20010904/DTD/svg10.dtd">
<svg version="1.0" xmlns="http://www.w3.org/2000/svg"
 width="340.000000pt" height="340.000000pt" viewBox="0 0 340.000000 340.000000"
 preserveAspectRatio="xMidYMid meet">
<metadata>
Created by potrace 1.14, written by Peter Selinger 2001-2017
</metadata>
<g transform="translate(0.000000,340.000000) scale(0.100000,-0.100000)"
fill="#000000" stroke="none">
<path d="M2655 3331 c-22 -10 -62 -42 -89 -72 -51 -57 -109 -99 -138 -99 -10
0 -18 -5 -18 -11 0 -6 -29 -41 -64 -77 -35 -37 -73 -85 -84 -108 -34 -68 -71
-213 -82 -326 -7 -73 -24 -150 -51 -238 -22 -72 -48 -164 -59 -204 -22 -86
-53 -151 -78 -165 -11 -6 -30 -4 -57 6 -22 9 -66 18 -97 20 -53 4 -56 4 -51
-16 7 -29 -9 -26 -36 5 -38 44 -36 18 4 -62 23 -45 48 -80 61 -86 13 -6 27
-24 33 -39 11 -32 41 -40 41 -11 0 9 -7 39 -15 66 -17 56 -20 106 -6 106 15 0
23 -19 25 -60 2 -41 31 -94 46 -85 6 4 10 29 10 58 0 57 16 55 22 -3 2 -27 7
-35 23 -35 13 0 21 8 23 23 4 29 22 28 22 -2 0 -12 -11 -35 -25 -50 -17 -18
-25 -39 -25 -62 0 -26 -4 -34 -17 -34 -10 0 -25 -5 -33 -10 -13 -8 -13 -13 -2
-31 12 -19 10 -26 -16 -63 -17 -22 -34 -39 -38 -36 -5 3 -7 10 -5 15 13 35 12
55 -3 55 -26 0 -49 -46 -43 -85 8 -46 -18 -70 -33 -30 -14 38 -34 26 -40 -25
-3 -24 -11 -45 -19 -48 -11 -4 -12 5 -7 42 6 37 4 47 -9 52 -23 9 -29 -1 -35
-58 -3 -30 -11 -53 -18 -56 -11 -3 -12 7 -8 49 8 63 -4 90 -28 70 -11 -9 -16
-30 -16 -67 0 -58 -13 -76 -30 -43 -8 14 -10 50 -5 110 6 75 5 89 -8 89 -27 0
-36 -25 -39 -118 -2 -63 -6 -92 -15 -92 -21 0 -24 38 -8 127 19 113 19 113 -9
113 -27 0 -36 -21 -36 -88 0 -24 -5 -52 -10 -63 -14 -25 -46 -24 -60 2 -10 17
-8 21 8 26 16 4 21 17 25 66 4 34 9 74 13 90 5 23 3 27 -15 27 -26 0 -38 -26
-46 -102 -4 -32 -10 -58 -15 -58 -4 0 -20 14 -33 30 -16 19 -35 30 -51 30 -19
0 -26 5 -26 19 0 10 -3 32 -6 48 -5 27 -3 30 28 39 43 13 70 62 64 122 -3 37
0 45 25 66 16 13 42 27 59 31 17 4 29 12 27 18 -8 24 -33 15 -77 -26 -75 -70
-84 -84 -85 -134 -2 -58 -24 -77 -78 -68 -25 3 -36 2 -32 -5 17 -28 -23 5 -42
35 -30 46 -67 69 -98 61 -37 -9 -32 -39 10 -59 18 -9 51 -34 72 -57 22 -23 47
-40 60 -40 33 0 53 -27 53 -72 0 -32 6 -46 32 -70 23 -21 38 -28 54 -24 19 5
28 -1 49 -31 14 -21 25 -43 25 -50 0 -15 -45 -40 -97 -53 l-38 -10 45 6 c25 3
60 14 78 25 37 21 52 24 52 9 0 -5 -23 -21 -50 -35 -58 -29 -90 -58 -90 -80 0
-8 9 -15 20 -15 31 0 24 -13 -30 -54 -28 -22 -58 -52 -66 -68 -12 -24 -18 -27
-34 -18 -31 17 -23 42 26 78 51 38 49 57 -7 49 -46 -6 -179 9 -192 22 -18 18
25 39 110 55 48 9 99 16 113 16 17 0 21 3 13 11 -15 15 -174 12 -241 -6 -31
-8 -90 -26 -131 -40 -92 -31 -163 -33 -198 -5 -36 28 -65 25 -115 -14 -24 -19
-104 -76 -178 -128 -206 -143 -335 -275 -361 -370 -23 -87 24 -180 127 -254
73 -52 108 -61 178 -44 48 11 56 11 95 -10 42 -21 45 -21 87 -5 30 11 57 15
83 10 48 -8 73 4 124 59 l37 41 -6 -51 c-5 -45 -3 -54 17 -73 27 -25 55 -22
129 12 37 16 67 20 165 22 137 1 148 5 237 83 56 49 68 55 158 67 25 4 64 16
88 27 48 23 72 14 72 -27 0 -12 11 -42 25 -66 13 -24 41 -74 61 -112 26 -48
44 -69 61 -73 33 -9 47 14 27 41 -25 34 -35 67 -40 130 -13 166 -16 185 -35
210 -11 14 -26 25 -32 25 -7 0 -19 4 -27 10 -12 7 -12 12 4 29 25 28 56 28 56
0 0 -12 18 -37 40 -58 28 -25 42 -47 45 -70 5 -44 18 -57 72 -75 69 -24 83
-40 83 -100 0 -37 7 -62 25 -91 19 -32 24 -54 25 -107 0 -45 8 -89 26 -140 14
-40 35 -107 47 -148 11 -41 22 -77 23 -79 6 -8 54 10 49 18 -3 5 -16 78 -30
161 -25 145 -25 154 -9 195 13 35 14 50 5 78 -8 25 -9 47 -1 81 13 58 3 79
-49 106 -29 14 -41 28 -46 50 -6 25 -17 35 -68 59 -82 37 -108 67 -114 128
l-4 48 33 -40 c86 -103 112 -126 163 -139 46 -11 54 -18 95 -80 29 -44 58 -75
81 -87 20 -10 50 -32 66 -48 l30 -29 180 1 c171 2 183 3 212 24 l30 23 36 -59
c19 -33 44 -80 56 -105 20 -47 42 -59 53 -30 13 34 5 93 -25 183 l-32 94 22
45 c42 87 36 185 -20 295 -25 48 -84 114 -120 133 -43 22 -42 17 6 -27 64 -59
97 -135 102 -234 3 -58 1 -76 -6 -65 -6 8 -11 32 -11 52 0 36 -14 57 -28 43
-11 -11 -20 -189 -9 -196 5 -3 -4 -16 -20 -29 -36 -28 -41 -13 -19 61 19 62
20 105 5 115 -20 12 -31 -13 -44 -104 -8 -50 -18 -100 -24 -110 -19 -36 -56
-40 -214 -20 -71 9 -100 9 -108 1 -8 -8 -35 13 -99 76 -104 104 -119 127 -90
136 11 3 20 11 20 16 0 18 -31 21 -49 5 -23 -21 -87 -21 -99 -1 -4 9 -5 45 0
82 9 75 -1 104 -32 96 -14 -4 -20 0 -20 10 0 9 -9 21 -20 27 -11 6 -20 16 -20
22 0 6 8 4 18 -5 23 -21 52 -22 52 -2 0 10 10 15 30 15 23 0 30 4 30 20 0 22
20 26 38 8 9 -9 19 -5 42 17 16 16 30 36 30 45 0 9 5 21 11 27 8 8 8 17 1 30
-16 27 10 50 79 69 56 16 80 39 65 63 -3 5 1 14 9 21 8 7 15 21 15 31 0 27 16
32 58 18 80 -25 142 -95 142 -159 0 -65 -18 -107 -55 -129 -19 -11 -35 -27
-35 -35 0 -7 -7 -16 -15 -20 -9 -3 -15 -19 -15 -38 l-1 -33 -14 33 c-22 50
-50 40 -51 -18 -1 -62 -3 -67 -14 -50 -5 8 -10 27 -10 43 0 15 -4 27 -10 27
-15 0 -30 -36 -30 -74 0 -19 -5 -38 -11 -42 -7 -4 -10 5 -7 27 2 25 -1 35 -14
37 -22 4 -41 -34 -34 -69 4 -24 0 -33 -24 -51 -32 -23 -40 -48 -15 -48 8 0 15
-5 15 -10 0 -6 -7 -13 -15 -16 -16 -7 -21 -44 -6 -44 5 0 16 7 25 15 8 8 19
15 25 15 6 0 11 14 11 30 0 30 1 31 35 24 37 -7 48 8 19 24 -14 8 -14 10 0 21
19 16 32 8 41 -26 9 -40 33 -73 51 -73 16 0 16 11 -1 67 -6 20 -3 23 34 29 44
7 48 13 30 46 -10 19 -9 20 10 15 15 -4 24 2 34 23 8 16 11 34 6 41 -11 18 -4
26 44 50 53 27 52 26 38 43 -20 24 -3 39 38 33 34 -6 35 -5 12 7 -22 12 -25
20 -25 77 0 57 3 64 21 67 14 2 33 -12 62 -47 34 -41 53 -53 106 -71 41 -14
73 -32 87 -49 13 -15 40 -38 61 -50 37 -23 38 -23 65 -4 45 30 112 42 146 25
23 -11 49 -13 110 -8 44 4 82 9 85 12 2 2 -3 19 -11 38 -27 56 -73 71 -213 68
l-121 -2 -19 43 c-12 25 -32 48 -50 57 -16 9 -48 34 -71 55 -22 22 -52 50 -66
62 -13 12 -30 40 -37 63 -8 28 -22 47 -44 60 -17 11 -33 17 -35 15 -7 -7 41
-79 87 -127 43 -47 43 -48 17 -48 -14 0 -35 9 -47 21 -24 24 -72 126 -71 151
0 12 -11 18 -41 23 -55 9 -102 34 -90 46 13 13 47 15 118 6 102 -13 118 -17
133 -39 13 -18 22 -20 72 -15 49 6 65 2 119 -23 69 -33 86 -35 117 -17 17 9
20 17 13 34 -11 31 -44 49 -111 63 -32 6 -60 16 -64 21 -3 5 -21 7 -39 3 -28
-5 -50 2 -124 42 -50 26 -91 51 -91 55 0 11 126 116 160 134 28 14 28 15 32
127 5 99 9 122 36 183 31 68 40 127 24 152 -5 7 -26 21 -47 32 l-39 19 43 27
c48 30 113 55 143 55 18 0 19 5 14 34 -7 35 7 65 63 138 26 33 26 39 -3 95
-20 37 -24 55 -19 93 3 26 0 63 -6 82 -9 26 -9 48 0 87 8 37 8 55 0 65 -7 8
-9 31 -5 58 11 79 -31 133 -111 142 -27 3 -41 3 -30 0 88 -25 66 -141 -39
-213 -49 -34 -88 -47 -181 -61 -38 -6 -86 -19 -107 -30 -36 -18 -70 -18 -95 3
-20 15 -16 122 6 165 32 63 98 129 146 148 44 17 82 16 215 -1 19 -3 10 2 -20
10 -76 20 -157 18 -205 -4z m-215 -408 c-11 -68 -14 -75 -70 -133 -46 -47 -64
-60 -88 -60 l-30 0 14 63 c8 34 22 84 30 110 14 43 19 48 39 43 20 -5 23 -1
28 44 7 55 24 93 59 130 l23 25 3 -75 c2 -41 -2 -107 -8 -147z m560 26 c4
-100 9 -129 24 -152 26 -39 7 -59 -22 -23 -36 47 -108 26 -219 -64 -62 -50
-99 -61 -132 -41 -28 18 -25 118 6 205 l28 80 56 12 c66 15 150 52 199 87 19
14 40 25 45 23 6 -1 12 -57 15 -127z m-428 -2 c49 -17 51 -19 37 -53 -6 -16
-14 -56 -18 -89 -5 -53 -9 -60 -29 -63 -15 -2 -33 6 -49 22 -14 14 -30 26 -34
26 -14 0 -10 33 6 54 8 11 15 36 15 56 0 32 14 60 30 60 3 0 22 -6 42 -13z
m-98 -206 c16 -18 16 -20 -6 -44 -22 -25 -132 -70 -143 -59 -15 15 0 44 40 81
49 45 82 52 109 22z m522 -15 c10 -40 -11 -61 -116 -116 -70 -37 -114 -67
-141 -99 -71 -80 -135 -105 -159 -61 -9 17 -6 25 18 49 17 17 33 47 38 73 9
44 9 44 71 47 12 1 58 26 103 56 91 63 113 73 152 74 21 1 29 -5 34 -23z
m-398 -101 c-3 -57 -8 -69 -36 -98 -18 -18 -32 -39 -32 -45 0 -9 -15 -12 -52
-10 l-53 3 -8 54 c-9 51 -8 54 24 87 37 39 103 74 138 74 23 0 23 -2 19 -65z
m-320 33 c21 -21 13 -52 -22 -80 -19 -16 -38 -28 -42 -28 -12 0 7 84 23 102
19 21 25 22 41 6z m102 -201 l0 -89 -44 -44 c-25 -24 -47 -44 -49 -44 -3 0
-13 33 -22 73 -9 39 -23 85 -31 101 -17 36 -9 48 57 82 26 13 51 29 55 35 5 9
11 7 21 -6 8 -13 13 -49 13 -108z m-165 -24 c3 -10 11 -49 16 -88 5 -38 12
-85 15 -103 6 -31 2 -38 -51 -88 -43 -41 -60 -65 -66 -95 -10 -42 -53 -109
-71 -109 -16 0 -1 61 47 189 23 64 51 160 60 214 17 95 33 121 50 80z m330
-24 c19 -20 19 -21 2 -32 -96 -61 -140 -92 -180 -128 -66 -57 -71 -41 -9 25
42 44 52 61 52 90 0 70 84 98 135 45z m309 -4 c17 -18 11 -48 -25 -115 -21
-40 -24 -57 -23 -152 1 -84 -2 -108 -12 -108 -7 0 -32 -19 -54 -42 l-42 -43
-16 24 c-45 63 -71 83 -102 76 -25 -6 -30 -4 -30 13 0 26 35 69 73 89 40 20
41 22 73 116 27 80 62 133 98 147 31 13 43 12 60 -5z m-184 -62 c0 -39 -50
-122 -110 -181 -58 -58 -62 -65 -56 -96 4 -20 2 -37 -4 -41 -5 -3 -10 -1 -10
6 0 8 -11 10 -35 6 -47 -8 -46 8 4 71 22 27 58 86 80 130 41 81 78 122 112
122 11 0 19 -7 19 -17z m-194 -131 c-8 -15 -21 -34 -30 -41 -8 -7 -2 10 12 38
15 28 28 46 30 41 2 -5 -4 -22 -12 -38z m-87 -48 c-22 -50 -46 -84 -60 -84
-16 0 -19 40 -5 68 13 26 75 76 83 68 2 -2 -6 -25 -18 -52z m-118 -96 c-6 -16
-19 -28 -33 -30 -14 -2 -34 -21 -54 -50 -40 -62 -64 -88 -81 -88 -22 0 -15 16
27 65 22 25 40 55 40 66 0 30 19 60 59 96 l36 31 8 -32 c5 -18 4 -43 -2 -58z
m193 -114 c-9 -21 -17 -40 -19 -42 -8 -8 -75 12 -75 22 0 10 101 68 108 61 1
-1 -5 -19 -14 -41z m-143 -34 c14 -14 46 -31 71 -38 58 -17 108 -48 108 -67 0
-22 -43 -19 -91 6 -23 11 -69 25 -102 31 -122 21 -145 53 -79 108 l37 31 15
-23 c8 -13 26 -34 41 -48z m307 54 c32 -22 27 -47 -18 -88 -57 -51 -110 -48
-110 6 0 39 15 64 48 82 35 20 52 20 80 0z m-396 -145 c29 -12 79 -28 111 -35
125 -30 124 -57 0 -57 -51 0 -92 6 -118 17 -67 28 -105 76 -72 89 20 9 24 8
79 -14z m-89 -56 c72 -36 167 -150 167 -199 0 -33 -21 -94 -32 -94 -4 0 -8 9
-8 20 0 30 -38 26 -46 -5 -4 -16 -13 -25 -25 -25 -25 0 -36 -27 -21 -51 17
-26 15 -31 -7 -19 -11 5 -27 7 -35 4 -14 -5 -13 -9 4 -32 24 -30 18 -37 -32
-45 -32 -5 -37 -3 -40 16 -2 12 -7 21 -13 21 -19 -2 -35 -49 -35 -102 0 -56
-14 -97 -31 -87 -5 4 -8 38 -7 76 3 80 -14 111 -33 63 -11 -29 -11 -29 -20 -6
-4 12 -12 22 -17 22 -20 0 -30 -28 -35 -105 -4 -44 -6 -81 -7 -82 0 -2 -11 -3
-25 -3 -29 0 -31 11 -10 70 21 58 19 92 -6 124 -20 26 -22 26 -40 10 -22 -19
-39 -74 -39 -121 0 -36 13 -43 29 -15 8 14 10 15 15 2 11 -31 0 -55 -25 -52
-78 8 -144 141 -95 190 15 15 16 14 16 -8 0 -14 4 -31 9 -39 7 -11 13 -8 27
14 13 20 18 45 17 92 l-2 65 40 -7 c40 -7 41 -7 37 21 -2 22 3 31 24 43 25 14
30 14 57 -2 16 -9 32 -17 35 -17 13 0 5 31 -9 36 -26 10 -18 37 8 30 31 -7 56
23 50 58 -6 30 -1 32 30 11 33 -21 52 -5 30 26 -11 14 -18 41 -18 64 0 32 5
42 25 52 26 13 46 10 93 -14z m517 2 c7 -9 10 -18 7 -21 -8 -8 -87 6 -87 15 0
25 61 29 80 6z m-250 -105 c28 -11 62 -20 76 -20 13 0 27 -6 29 -12 33 -95 52
-133 86 -172 41 -47 40 -54 -4 -37 -19 8 -29 23 -42 67 -11 37 -29 70 -50 91
-33 33 -51 38 -128 34 -29 -2 -42 3 -57 21 -11 12 -19 29 -20 36 0 18 52 15
110 -8z m57 -105 c22 -16 60 -101 50 -112 -4 -3 -29 17 -56 46 -36 37 -57 51
-78 51 l-28 1 25 14 c33 19 60 19 87 0z m-800 -132 c-11 -55 -27 -87 -38 -76
-17 17 16 102 40 103 2 0 1 -12 -2 -27z m-187 -13 c0 -9 -32 -30 -46 -30 -4 0
1 9 11 20 19 21 35 26 35 10z m1259 -47 c59 -34 174 -124 167 -131 -3 -3 -23
7 -43 21 -21 14 -56 33 -78 42 -68 27 -82 36 -94 62 -19 42 -15 43 48 6z
m-1819 -16 c0 -13 -88 -92 -95 -86 -2 2 -6 16 -10 30 -6 23 -1 29 42 51 48 26
63 27 63 5z m610 -2 c0 -35 -21 -73 -63 -113 l-35 -34 -14 29 c-11 23 -19 27
-43 25 l-30 -3 35 35 c30 32 120 86 142 86 4 0 8 -11 8 -25z m-872 -53 c5 -50
-18 -75 -111 -120 -96 -47 -101 -53 -100 -148 l0 -62 -61 -12 c-83 -16 -148
-45 -182 -82 l-29 -30 25 7 c14 4 59 22 100 40 93 41 113 47 155 47 42 0 80
-25 96 -64 17 -41 -6 -82 -73 -133 -27 -21 -56 -48 -64 -61 -11 -16 -29 -23
-67 -28 -29 -4 -68 -10 -87 -12 -29 -5 -45 1 -85 29 -28 18 -65 53 -82 76 -29
37 -33 50 -33 100 0 65 8 79 94 169 77 81 103 96 171 102 57 5 60 7 63 33 3
20 13 32 44 48 23 12 62 41 88 65 52 48 97 76 120 71 9 -1 16 -16 18 -35z
m120 -22 c9 -38 9 -40 -14 -40 -21 0 -24 5 -24 33 0 60 23 64 38 7z m841 -25
c18 -36 46 -76 61 -89 l28 -23 -15 -47 c-16 -47 -94 -135 -120 -136 -6 0 -20
15 -32 33 -11 17 -29 38 -41 45 -17 11 -20 19 -14 44 3 18 6 51 6 75 -1 33 5
49 25 70 14 16 32 43 39 61 8 17 18 32 22 32 4 0 22 -29 41 -65z m-539 41 c19
-7 35 -17 34 -22 0 -5 -26 -26 -57 -47 -31 -21 -57 -44 -57 -52 0 -21 39 -19
75 5 32 21 70 26 80 11 14 -24 -22 -64 -86 -97 -46 -23 -81 -50 -111 -85 -24
-28 -70 -81 -102 -118 -32 -36 -68 -78 -79 -93 -12 -16 -28 -28 -38 -28 -9 0
-43 -27 -74 -59 l-57 -59 -69 -4 c-38 -2 -69 0 -69 4 0 5 30 41 67 80 36 40
77 97 90 126 27 61 42 69 146 78 127 11 152 34 151 137 0 47 0 47 32 47 36 0
54 17 33 32 -12 8 -54 7 -149 -4 -45 -5 -30 25 45 95 68 62 77 67 117 66 24 0
59 -6 78 -13z m1020 -20 c0 -13 -9 -34 -20 -47 l-19 -24 -1 25 c0 40 11 70 26
70 8 0 14 -10 14 -24z m870 -36 c0 -5 -4 -10 -10 -10 -5 0 -10 5 -10 10 0 6 5
10 10 10 6 0 10 -4 10 -10z m240 -10 c13 -9 13 -11 0 -20 -20 -13 -47 -13 -73
2 -21 11 -21 11 -2 19 28 11 57 10 75 -1z m-1898 -77 c3 -145 1 -151 -65 -184
-37 -20 -70 -17 -35 2 14 8 16 21 11 83 -5 71 -5 75 21 101 15 15 31 38 36 51
18 46 30 25 32 -53z m-571 49 c32 -27 19 -46 -41 -61 -80 -20 -97 16 -28 59
40 24 40 24 69 2z m1198 -29 c1 -7 -3 -13 -9 -13 -5 0 -10 15 -9 33 0 27 2 29
9 12 5 -11 9 -26 9 -32z m1091 43 c0 -11 -19 -15 -25 -6 -3 5 1 10 9 10 9 0
16 -2 16 -4z m-1646 -22 c10 -26 7 -51 -8 -63 -11 -9 -15 -5 -19 19 -10 47 12
83 27 44z m-796 -72 c3 -27 -1 -33 -38 -52 -45 -23 -64 -19 -54 12 7 24 65 79
79 74 6 -1 11 -17 13 -34z m182 -22 c0 -27 22 -35 61 -21 18 6 34 9 37 7 8 -9
-9 -75 -23 -89 -8 -9 -47 -18 -92 -22 -84 -8 -130 -22 -152 -48 -12 -16 -16
-15 -50 5 -52 31 -54 34 -42 57 19 35 76 71 162 101 100 35 99 35 99 10z m670
-19 c0 -17 -7 -60 -16 -97 -8 -37 -18 -91 -22 -122 l-7 -55 -55 -14 c-35 -9
-76 -30 -113 -59 -41 -32 -59 -41 -63 -31 -3 8 -4 49 -2 92 l3 79 60 33 c73
41 135 103 135 137 0 16 10 31 33 45 42 27 47 26 47 -8z m380 -1 c0 -11 -2
-20 -4 -20 -2 0 -11 -3 -20 -6 -19 -7 -22 16 -4 34 18 18 28 15 28 -8z m77 -6
c-9 -9 -28 6 -21 18 4 6 10 6 17 -1 6 -6 8 -13 4 -17z m-772 -15 c-13 -20 -88
-69 -107 -69 -27 0 -14 17 40 51 46 29 79 38 67 18z m795 -39 c0 -11 -7 -20
-15 -20 -8 0 -15 2 -15 4 0 2 -3 11 -6 20 -4 12 0 16 15 16 14 0 21 -6 21 -20z
m-740 -17 c0 -9 -11 -31 -25 -49 -29 -38 -47 -112 -44 -180 2 -27 2 -63 1 -80
l-2 -31 -114 -6 c-89 -4 -123 -10 -156 -27 l-42 -22 7 72 c7 67 11 76 66 150
69 91 81 100 178 130 40 13 83 31 95 41 27 23 36 23 36 2z m336 -47 l33 -34
-20 -26 c-11 -14 -34 -35 -51 -47 l-31 -22 5 70 c5 67 12 93 25 93 3 0 21 -15
39 -34z m266 -1 c4 -16 1 -24 -6 -22 -6 2 -12 16 -14 31 -4 35 14 26 20 -9z
m178 -17 c0 -16 -3 -19 -11 -11 -6 6 -8 16 -5 22 11 17 16 13 16 -11z m-292
-107 c4 -39 -9 -39 -42 0 -29 34 -32 45 -13 52 22 9 52 -19 55 -52z m265 -43
c33 -17 16 -28 -20 -13 -51 21 -67 39 -28 29 17 -4 38 -11 48 -16z m115 -111
c12 -14 2 -67 -18 -97 -9 -13 -11 -13 -20 0 -38 57 -2 146 38 97z m12 -173 c0
-8 -4 -14 -9 -14 -11 0 -22 26 -14 34 9 9 23 -3 23 -20z"/>
<path d="M1605 2408 c-11 -38 -23 -169 -18 -209 5 -40 2 -48 -18 -63 -13 -9
-31 -16 -39 -16 -9 0 -25 -6 -35 -14 -16 -12 -17 -16 -6 -30 20 -23 41 -20 38
6 -2 21 4 23 67 30 56 7 72 5 86 -7 19 -17 46 -20 54 -6 11 16 -5 39 -45 67
l-39 27 6 77 c4 50 2 90 -5 113 -12 36 -38 50 -46 25z"/>
<path d="M2056 1008 c-19 -26 -20 -51 -6 -79 15 -28 26 -24 35 14 8 30 8 31
12 7 7 -38 22 -48 39 -26 15 21 19 82 7 89 -5 3 -22 8 -40 11 -25 6 -34 3 -47
-16z"/>
<path d="M2612 823 c-6 -10 -13 -38 -17 -63 -4 -25 -14 -58 -22 -73 -17 -33
-10 -46 15 -31 29 18 52 76 52 132 0 52 -12 67 -28 35z"/>
<path d="M2248 819 c-17 -9 -16 -12 4 -39 24 -33 43 -38 52 -14 9 24 8 31 -10
48 -18 18 -23 19 -46 5z"/>
<path d="M2456 788 c-23 -33 -20 -128 4 -128 13 0 30 60 30 106 0 49 -11 55
-34 22z"/>
<path d="M2521 786 c-16 -20 -26 -112 -13 -120 15 -9 28 20 37 82 7 53 -1 66
-24 38z"/>
<path d="M2391 776 c-13 -16 -18 -77 -7 -95 16 -25 36 10 36 60 0 50 -8 60
-29 35z"/>
</g>
</svg>
